PathFileType	4	(X/Y/Z)	/Users/niels/Desktop/University/Third Semester/Perception and Action/Exam/Gymnastics Motion Tracking/Code for Gym Tracking/Analyzed Data/Webcam_Backflip/id5_5_trajectory_Sports2D/id5_5_trajectory_Sports2D_px_person00.trc
DataRate	CameraRate	NumFrames	NumMarkers	Units	OrigDataRate	OrigDataStartFrame	OrigNumFrames
29.81132075471698	29.81132075471698	10	22	m	29.81132075471698	79	159
Frame#	Time	Hip			RHip			RKnee			RAnkle			RBigToe			RSmallToe			RHeel			LHip			LKnee			LAnkle			LBigToe			LSmallToe			LHeel			Neck			Head			Nose			RShoulder			RElbow			RWrist			LShoulder			LElbow			LWrist		
		X1	Y1	Z1	X2	Y2	Z2	X3	Y3	Z3	X4	Y4	Z4	X5	Y5	Z5	X6	Y6	Z6	X7	Y7	Z7	X8	Y8	Z8	X9	Y9	Z9	X10	Y10	Z10	X11	Y11	Z11	X12	Y12	Z12	X13	Y13	Z13	X14	Y14	Z14	X15	Y15	Z15	X16	Y16	Z16	X17	Y17	Z17	X18	Y18	Z18	X19	Y19	Z19	X20	Y20	Z20	X21	Y21	Z21	X22	Y22	Z22
79	2.65	0.7867250578269299	-0.6239178994829042	0.0	0.7826836657702942	-0.6235691444332314	0.0	0.8358517767052018	-0.705734378020865	0.0	0.7734283516071563	-0.7889593491075382	0.0	0.8061634578848352	-0.810834354376546	0.0	0.7945388978830301	-0.811728897687777	0.0	0.7595509855733178	-0.7996759775150818	0.0	0.7924553105189944	-0.6216024522234508	0.0	0.8341444949125629	-0.7043181202190382	0.0	0.7801928952625661	-0.7843491150572143	0.0	0.8217216413361269	-0.8064297994587949	0.0	0.8148610031598226	-0.803062592746406	0.0	0.7661163027967275	-0.7953454551748709	0.0	0.8013665968860859	-0.4813321318016443	0.0	0.8216224506186888	-0.42114892367860934	0.0	0.8355703973689093	-0.45443721117426367	0.0	0.7858572641458231	-0.502603307793454	0.0	0.7845908305684832	-0.5740682031278127	0.0	0.8081122342001327	-0.6289578509123666	0.0	0.8058411455443055	-0.49971532287051423	0.0	0.810392091628473	-0.5681545280053119	0.0	0.835555442051979	-0.6203959796005715	0.0
80	2.6835443037974684	0.7854682340106895	-0.6118593645712083	0.0	0.7820408585768336	-0.6115498418581446	0.0	0.8383267372375	-0.6929158416649968	0.0	0.774550241267445	-0.7757802145942909	0.0	0.8087634534309369	-0.7986219314918533	0.0	0.7972845232428208	-0.7995743325072723	0.0	0.7595699949195311	-0.7872776295390795	0.0	0.7913269546645864	-0.6094212100776609	0.0	0.8365352182682093	-0.6916034993689588	0.0	0.7811985310033283	-0.7708772556842014	0.0	0.8240841428121745	-0.7945184188726555	0.0	0.8174889200681918	-0.7907138459128907	0.0	0.7660362946552275	-0.7827959959433091	0.0	0.8022844598885794	-0.470481672830552	0.0	0.8228203022271576	-0.4103692376930476	0.0	0.8367912179269413	-0.4444418925143414	0.0	0.7864664947629609	-0.4909307892523813	0.0	0.7882133633219907	-0.5629422982460185	0.0	0.8157690706619709	-0.6171941964290858	0.0	0.8078541246377446	-0.4887240730480703	0.0	0.8152635295663723	-0.5560443922669819	0.0	0.8425150296952897	-0.6094950281202751	0.0
81	2.7170886075949365	0.7849778155552722	-0.599202666095145	0.0	0.7822129799445258	-0.5988074223476647	0.0	0.8387606138452999	-0.6810839581909938	0.0	0.7753562676541655	-0.7648066308759547	0.0	0.8107087197382721	-0.7879320444694348	0.0	0.7996876353402236	-0.7890599565983583	0.0	0.7595978888563069	-0.776948207746615	0.0	0.7909534458241858	-0.596613932146048	0.0	0.8367485499936093	-0.6799168700473716	0.0	0.781354661588166	-0.7597675063525867	0.0	0.8249271015494669	-0.784258611759257	0.0	0.8185520995940487	-0.7802645985171586	0.0	0.7650911969426277	-0.7723137989776843	0.0	0.8028173818132076	-0.4588197745881335	0.0	0.8234515804281993	-0.3984707802552766	0.0	0.8374385586471447	-0.43325832435540146	0.0	0.7869247059815462	-0.4780854802907309	0.0	0.7914187596644463	-0.5500259020499937	0.0	0.8225348776195283	-0.6038097633915301	0.0	0.8091618661135834	-0.4767140965052643	0.0	0.818887532285799	-0.542726380936785	0.0	0.8481203739711453	-0.5958829701002025	0.0
82	2.750632911392405	0.7850563925959456	-0.5872890550059668	0.0	0.7830054203159863	-0.5866253379196995	0.0	0.837142773632236	-0.6712062995605634	0.0	0.775805452441951	-0.7568779019595806	0.0	0.811934394274472	-0.7797774452819723	0.0	0.8016185544024115	-0.7811478716442084	0.0	0.7595911459465222	-0.769517758194072	0.0	0.7910453712417964	-0.5844825869919145	0.0	0.8346413228821008	-0.6702459484674058	0.0	0.7806965644603742	-0.7518701630523652	0.0	0.8243320181001792	-0.7764749719693851	0.0	0.8181500873733157	-0.7725722053921605	0.0	0.7634848043683272	-0.7648096006139085	0.0	0.8030869480620266	-0.44745095568485016	0.0	0.8235494441605915	-0.38663911502892684	0.0	0.8375418385325436	-0.42194312732833883	0.0	0.7873501811216987	-0.46533031645557116	0.0	0.7941003338215085	-0.5366719718844312	0.0	0.8279699976747302	-0.5902280893072006	0.0	0.8098079751359669	-0.464882608839793	0.0	0.8214861679085006	-0.5297924106941674	0.0	0.8526696455142663	-0.5822521541385214	0.0
83	2.784177215189873	0.785515656004496	-0.5770935689670694	0.0	0.7842076893450602	-0.5759841351837157	0.0	0.8337488070281901	-0.6636616293365778	0.0	0.7759081396981098	-0.7521474840159188	0.0	0.8125951734214004	-0.7744757312458295	0.0	0.8030848784575327	-0.776117879652209	0.0	0.7595395047443202	-0.7651424306932336	0.0	0.7913631409260139	-0.5739707025807282	0.0	0.8305488442719643	-0.6629516584961906	0.0	0.7794704505459514	-0.7472903148974157	0.0	0.8227000679010606	-0.7713660613136061	0.0	0.8167110095030039	-0.7678101416306893	0.0	0.7616167611234478	-0.7605036060910337	0.0	0.8032307189809087	-0.4372162854027276	0.0	0.8231738864397794	-0.3758432163278952	0.0	0.8372295150198459	-0.41143764705742	0.0	0.787882864643635	-0.453709436001364	0.0	0.7961922644941973	-0.5240993965641247	0.0	0.8317495280533914	-0.5776529064455612	0.0	0.8099730941200057	-0.4542056034290211	0.0	0.8233480721469205	-0.5183260645013111	0.0	0.8562479469590203	-0.5702505371075746	0.0
84	2.8177215189873417	0.786232335725289	-0.5691582139398236	0.0	0.7856357926475042	-0.5674942208861394	0.0	0.8290308262186268	-0.6584227663343547	0.0	0.7757016481755017	-0.7502722446142674	0.0	0.8129335038165999	-0.7717852909455243	0.0	0.8041634167433035	-0.7737017336547682	0.0	0.7594436340905728	-0.7635148840652237	0.0	0.7917897065598771	-0.5656596964527739	0.0	0.8251604388991987	-0.6579447475091158	0.0	0.7779974032769741	-0.7455871156239601	0.0	0.8205854793338353	-0.768679825535207	0.0	0.8147948203666828	-0.7656555442702181	0.0	0.7598640708174113	-0.7590664757124811	0.0	0.803313663278545	-0.4287076384938582	0.0	0.8224120702111791	-0.36676915401876137	0.0	0.8366643397982525	-0.4024647388501212	0.0	0.7886354603753628	-0.4440140219603533	0.0	0.7976741366040254	-0.5132984319670496	0.0	0.8337202297506073	-0.5670452336628857	0.0	0.8098318108277094	-0.4453955702138547	0.0	0.8246760767797554	-0.5090258652362254	0.0	0.8588191860152856	-0.5607924774929093	0.0
85	2.85126582278481	0.7871329113383315	-0.5636894546020412	0.0	0.7871278580164414	-0.5614508843712773	0.0	0.8234908074765488	-0.6552866617283952	0.0	0.7752411617288539	-0.7506189879667114	0.0	0.8131282735071234	-0.7711874362370077	0.0	0.8048900794185126	-0.7733478016692913	0.0	0.7592792033508162	-0.7640696265857861	0.0	0.792287352689595	-0.55986150276508	0.0	0.8193080677418154	-0.6549509993235719	0.0	0.7765920220455399	-0.7460189945201617	0.0	0.8184769233149096	-0.7679490602231314	0.0	0.8128697400259328	-0.7655205017511131	0.0	0.7584909994631175	-0.7598388192648392	0.0	0.8033129066900889	-0.4223102066861145	0.0	0.8213701107822283	-0.35980593126207694	0.0	0.8360000768032507	-0.3954660357249332	0.0	0.7896739532301617	-0.4367577768615791	0.0	0.7985510935731633	-0.5049652294085384	0.0	0.8338948857192671	-0.5590976965899467	0.0	0.8094631229668258	-0.4388840872319904	0.0	0.825501375142308	-0.5023442248435178	0.0	0.8602797531965912	-0.5543303142881053	0.0
86	2.8848101265822783	0.7881644688680779	-0.5607022065634933	0.0	0.7885425323328346	-0.5579411673331665	0.0	0.8175733165716904	-0.6540560610396979	0.0	0.7745727149724393	-0.7524779267602384	0.0	0.8131938723359055	-0.7721636944742578	0.0	0.8051686591193553	-0.7745032657555899	0.0	0.7589821856104476	-0.766162051586852	0.0	0.7928490589319739	-0.556687456185406	0.0	0.8137492570678924	-0.6537362621308872	0.0	0.775505434260443	-0.7478178736304202	0.0	0.8166120354230023	-0.7687360833137014	0.0	0.8111727883848162	-0.7668210038818416	0.0	0.7576544027683343	-0.7620900739779722	0.0	0.8031974147802733	-0.4182170985185227	0.0	0.8201929871725431	-0.3551241263574018	0.0	0.8353567185918872	-0.39064031772060215	0.0	0.7909846544634587	-0.43216280492984543	0.0	0.7987907954916077	-0.4994734748471502	0.0	0.8323481086428645	-0.5542053573733634	0.0	0.8089068243437999	-0.43486646102358767	0.0	0.8257142760514445	-0.49854346027075697	0.0	0.86042452605128	-0.5509770629109157	0.0
87	2.918354430379747	0.7893011500461546	-0.5600606869424141	0.0	0.7897736127298991	-0.5568702754406747	0.0	0.8116197691155164	-0.6545855001812971	0.0	0.773712442115683	-0.7552521349139084	0.0	0.8130262684808208	-0.7743169137597281	0.0	0.8048215790147397	-0.7767703689339011	0.0	0.7584840019254234	-0.769252898826826	0.0	0.7935238072714395	-0.5560380662539559	0.0	0.8090251457215447	-0.6541767911797625	0.0	0.7748821619843063	-0.7504301534740229	0.0	0.8150034280702181	-0.7707764438221365	0.0	0.8097852253074199	-0.7691519005896279	0.0	0.757433253620282	-0.7652224552974761	0.0	0.8030051718456572	-0.416410454007678	0.0	0.8190654616120462	-0.3527900231605298	0.0	0.8348090699350589	-0.38801228678575705	0.0	0.7924228557695387	-0.43018996872938997	0.0	0.7982929631173992	-0.4968661213321228	0.0	0.8291191290724881	-0.5524457531233145	0.0	0.8082403624321627	-0.4333477808255592	0.0	0.8251347722448026	-0.4976551016410039	0.0	0.8589329480047116	-0.550554781848773	0.0
88	2.951898734177215	0.7905541811669434	-0.5614887949523096	0.0	0.790759970603461	-0.5579653352169571	0.0	0.8058836478863243	-0.6567227698098149	0.0	0.7726545753036783	-0.7585709363390465	0.0	0.8125305892068957	-0.7773537662290957	0.0	0.8037336154964877	-0.7799025466052477	0.0	0.7577724608355487	-0.7730089241606932	0.0	0.7944520648816011	-0.5576135636052452	0.0	0.8054144199561247	-0.6561946680218669	0.0	0.7747537363959617	-0.7536033188481647	0.0	0.8136172587415273	-0.7739425998341823	0.0	0.8087744584575719	-0.7722705588449488	0.0	0.757873601467261	-0.768831871978694	0.0	0.8028302944504938	-0.4166582507721906	0.0	0.8181522547734433	-0.35280790993038696	0.0	0.8344037970951252	-0.3874692588310117	0.0	0.7937333750158301	-0.4306040220539603	0.0	0.7969462519276121	-0.496905688138385	0.0	0.8242278177919462	-0.5535689000948655	0.0	0.8075451714159415	-0.43413671056324543	0.0	0.8235298355795305	-0.499379267100819	0.0	0.8554527746155415	-0.5526278386610073	0.0
